# xmcd CD database file
#
# Track frame offsets:
#	150
#	16965
#	30830
#	52524
#	67475
#	93166
#	103263
#	124031
#	141506
#	165187
#
# Disc length: 2478 seconds
#
# Revision: 0
# Processed by: cddbd v1.4PL0 Copyright (c) Steve Scherf et al.
# Submitted via: CDex 1.50beta10
#
DISCID=7909ac0a
DTITLE=Evangeline - Big Choice
DYEAR=2003
DGENRE=Country
TTITLE0=Little World
TTITLE1=I Know Better
TTITLE2=Killing Her Again
TTITLE3=Tupelo
TTITLE4=Border State
TTITLE5=Sun Valley
TTITLE6=Still Got You
TTITLE7=The Ballad of Mild Paul
TTITLE8=2000 and Raining
TTITLE9=Say Goodnight
EXTD=YEAR: 2003
EXTT0=
EXTT1=
EXTT2=
EXTT3=
EXTT4=
EXTT5=
EXTT6=
EXTT7=
EXTT8=
EXTT9=
PLAYORDER=
